<mxfile host="Electron" agent="Mozilla/5.0 (Windows NT 10.0; Win64; x64) AppleWebKit/537.36 (KHTML, like Gecko) draw.io/24.7.8 Chrome/128.0.6613.36 Electron/32.0.1 Safari/537.36" version="24.7.8">
  <diagram name="PÃ¡gina-1" id="NjFyjIw-ln6BMNcZVV60">
    <mxGraphModel dx="974" dy="516" grid="1" gridSize="10" guides="1" tooltips="1" connect="1" arrows="1" fold="1" page="1" pageScale="1" pageWidth="827" pageHeight="1169" math="0" shadow="0">
      <root>
        <mxCell id="0" />
        <mxCell id="1" parent="0" />
        <mxCell id="YZAFLp-83oCMwf8LE8MG-1" value="Tema" style="swimlane;fontStyle=1;align=center;verticalAlign=top;childLayout=stackLayout;horizontal=1;startSize=26;horizontalStack=0;resizeParent=1;resizeParentMax=0;resizeLast=0;collapsible=1;marginBottom=0;whiteSpace=wrap;html=1;" vertex="1" parent="1">
          <mxGeometry x="490" y="10" width="219" height="170" as="geometry" />
        </mxCell>
        <mxCell id="YZAFLp-83oCMwf8LE8MG-2" value="- _titulo: str&lt;div&gt;- _duracion: float&lt;br&gt;&lt;/div&gt;&lt;div&gt;&lt;br&gt;&lt;/div&gt;" style="text;strokeColor=none;fillColor=none;align=left;verticalAlign=top;spacingLeft=4;spacingRight=4;overflow=hidden;rotatable=0;points=[[0,0.5],[1,0.5]];portConstraint=eastwest;whiteSpace=wrap;html=1;" vertex="1" parent="YZAFLp-83oCMwf8LE8MG-1">
          <mxGeometry y="26" width="219" height="44" as="geometry" />
        </mxCell>
        <mxCell id="YZAFLp-83oCMwf8LE8MG-3" value="" style="line;strokeWidth=1;fillColor=none;align=left;verticalAlign=middle;spacingTop=-1;spacingLeft=3;spacingRight=3;rotatable=0;labelPosition=right;points=[];portConstraint=eastwest;strokeColor=inherit;" vertex="1" parent="YZAFLp-83oCMwf8LE8MG-1">
          <mxGeometry y="70" width="219" height="8" as="geometry" />
        </mxCell>
        <mxCell id="YZAFLp-83oCMwf8LE8MG-4" value="+ getTitulo () : str&lt;div&gt;+ getDuracion () : float&lt;/div&gt;&lt;div&gt;&lt;br&gt;&lt;/div&gt;&lt;div&gt;+ setTitulo( nuevoTitulo : str )&lt;/div&gt;&lt;div&gt;+ setDuracion ( nuevaDuracion : float)&lt;/div&gt;&lt;div&gt;&lt;br&gt;&lt;/div&gt;" style="text;strokeColor=none;fillColor=none;align=left;verticalAlign=top;spacingLeft=4;spacingRight=4;overflow=hidden;rotatable=0;points=[[0,0.5],[1,0.5]];portConstraint=eastwest;whiteSpace=wrap;html=1;" vertex="1" parent="YZAFLp-83oCMwf8LE8MG-1">
          <mxGeometry y="78" width="219" height="92" as="geometry" />
        </mxCell>
        <mxCell id="YZAFLp-83oCMwf8LE8MG-5" value="AlbumMusical" style="swimlane;fontStyle=1;align=center;verticalAlign=top;childLayout=stackLayout;horizontal=1;startSize=26;horizontalStack=0;resizeParent=1;resizeParentMax=0;resizeLast=0;collapsible=1;marginBottom=0;whiteSpace=wrap;html=1;" vertex="1" parent="1">
          <mxGeometry x="70" y="10" width="230" height="250" as="geometry" />
        </mxCell>
        <mxCell id="YZAFLp-83oCMwf8LE8MG-6" value="&lt;div&gt;- _titulo: str&lt;div&gt;- _artista: str&lt;/div&gt;&lt;/div&gt;&lt;div&gt;- _anio : int&lt;/div&gt;&lt;div&gt;- _temas = [] : str&lt;/div&gt;" style="text;strokeColor=none;fillColor=none;align=left;verticalAlign=top;spacingLeft=4;spacingRight=4;overflow=hidden;rotatable=0;points=[[0,0.5],[1,0.5]];portConstraint=eastwest;whiteSpace=wrap;html=1;" vertex="1" parent="YZAFLp-83oCMwf8LE8MG-5">
          <mxGeometry y="26" width="230" height="74" as="geometry" />
        </mxCell>
        <mxCell id="YZAFLp-83oCMwf8LE8MG-7" value="" style="line;strokeWidth=1;fillColor=none;align=left;verticalAlign=middle;spacingTop=-1;spacingLeft=3;spacingRight=3;rotatable=0;labelPosition=right;points=[];portConstraint=eastwest;strokeColor=inherit;" vertex="1" parent="YZAFLp-83oCMwf8LE8MG-5">
          <mxGeometry y="100" width="230" height="8" as="geometry" />
        </mxCell>
        <mxCell id="YZAFLp-83oCMwf8LE8MG-8" value="+ getTitulo () : str&lt;div&gt;+ getArtista () : str&lt;br&gt;&lt;/div&gt;&lt;div&gt;+ getAnio () : int&lt;/div&gt;&lt;div&gt;&lt;br&gt;&lt;/div&gt;&lt;div&gt;+ setTitulo ( nuevoTitulo : str)&amp;nbsp;&lt;div&gt;+ setArtista ( nuevoArtista&amp;nbsp;&lt;span style=&quot;background-color: initial;&quot;&gt;: str&amp;nbsp;&lt;/span&gt;&lt;span style=&quot;background-color: initial;&quot;&gt;)&amp;nbsp;&lt;/span&gt;&lt;/div&gt;&lt;div&gt;+ setAnio ( nuevoAnio : int )&amp;nbsp;&lt;/div&gt;&lt;/div&gt;&lt;div&gt;&lt;br&gt;&lt;/div&gt;&lt;div&gt;+ agregarTema ( tema : str)&lt;/div&gt;" style="text;strokeColor=none;fillColor=none;align=left;verticalAlign=top;spacingLeft=4;spacingRight=4;overflow=hidden;rotatable=0;points=[[0,0.5],[1,0.5]];portConstraint=eastwest;whiteSpace=wrap;html=1;" vertex="1" parent="YZAFLp-83oCMwf8LE8MG-5">
          <mxGeometry y="108" width="230" height="142" as="geometry" />
        </mxCell>
        <mxCell id="YZAFLp-83oCMwf8LE8MG-9" value="0..1" style="endArrow=open;html=1;endSize=12;startArrow=diamondThin;startSize=14;startFill=0;edgeStyle=orthogonalEdgeStyle;align=left;verticalAlign=bottom;rounded=0;exitX=0.987;exitY=0.246;exitDx=0;exitDy=0;entryX=0;entryY=0.23;entryDx=0;entryDy=0;exitPerimeter=0;entryPerimeter=0;" edge="1" parent="1" source="YZAFLp-83oCMwf8LE8MG-8" target="YZAFLp-83oCMwf8LE8MG-4">
          <mxGeometry x="-1" y="3" relative="1" as="geometry">
            <mxPoint x="350" y="488" as="sourcePoint" />
            <mxPoint x="530" y="488" as="targetPoint" />
          </mxGeometry>
        </mxCell>
        <mxCell id="YZAFLp-83oCMwf8LE8MG-10" value="0..*" style="text;html=1;align=center;verticalAlign=middle;resizable=0;points=[];autosize=1;strokeColor=none;fillColor=none;" vertex="1" parent="1">
          <mxGeometry x="450" y="110" width="40" height="30" as="geometry" />
        </mxCell>
      </root>
    </mxGraphModel>
  </diagram>
</mxfile>
